HIERARCHY
ROOT Hips
{
  OFFSET 0.000000 0.000000 0.000000
  CHANNELS 6 Xposition Yposition Zposition Zrotation Yrotation Xrotation
  JOINT Spine
  {
    OFFSET -0.059818 2.086548 0.021003
    CHANNELS 3 Zrotation Yrotation Xrotation
    JOINT Spine1
    {
      OFFSET 0.047353 2.084555 -0.017952
      CHANNELS 3 Zrotation Yrotation Xrotation
      JOINT Spine2
      {
        OFFSET 0.073283 2.082630 -0.028953
        CHANNELS 3 Zrotation Yrotation Xrotation
        JOINT Neck
        {
          OFFSET -0.100379 1.437811 0.030840
          CHANNELS 3 Zrotation Yrotation Xrotation
          JOINT Head
          {
            OFFSET 0.027441 1.456332 -0.073612
            CHANNELS 3 Zrotation Yrotation Xrotation
            End Site
            {
              OFFSET 0 0 0
            }
          }
        }
        JOINT LeftShoulder
        {
          OFFSET 2.750607 0.743894 0.252268
          CHANNELS 3 Zrotation Yrotation Xrotation
          JOINT LeftArm
          {
            OFFSET 4.369010 -0.000000 0.000000
            CHANNELS 3 Zrotation Yrotation Xrotation
            JOINT LeftForeArm
            {
              OFFSET 3.217370 -0.000000 -0.000000
              CHANNELS 3 Zrotation Yrotation Xrotation
              JOINT LeftHand
              {
                OFFSET 0.564313 -0.000000 0.000000
                CHANNELS 3 Zrotation Yrotation Xrotation
                JOINT LeftHandIndex1
                {
                  OFFSET 0.454963 -0.000000 0.000000
                  CHANNELS 3 Zrotation Yrotation Xrotation
                  End Site
                  {
                    OFFSET 0 0 0
                  }
                }
              }
            }
          }
        }
        JOINT RightShoulder
        {
          OFFSET -2.973790 0.790938 0.483767
          CHANNELS 3 Zrotation Yrotation Xrotation
          JOINT RightArm
          {
            OFFSET -4.341180 -0.000000 -0.000000
            CHANNELS 3 Zrotation Yrotation Xrotation
            JOINT RightForeArm
            {
              OFFSET -3.095310 -0.000000 0.000000
              CHANNELS 3 Zrotation Yrotation Xrotation
              JOINT RightHand
              {
                OFFSET -0.597446 -0.000000 0.000000
                CHANNELS 3 Zrotation Yrotation Xrotation
                JOINT RightHandIndex1
                {
                  OFFSET -0.481677 -0.000000 0.000000
                  CHANNELS 3 Zrotation Yrotation Xrotation
                  End Site
                  {
                    OFFSET 0 0 0
                  }
                }
              }
            }
          }
        }
      }
    }
  }
  JOINT LeftUpLeg
  {
    OFFSET 2.243231 -6.163230 0.000000
    CHANNELS 3 Zrotation Yrotation Xrotation
    JOINT LeftLeg
    {
      OFFSET 2.326769 -6.392750 0.000000
      CHANNELS 3 Zrotation Yrotation Xrotation
      JOINT LeftFoot
      {
        OFFSET 0.186861 -0.513396 1.959728
        CHANNELS 3 Zrotation Yrotation Xrotation
        JOINT LeftToeBase
        {
          OFFSET 0.000000 -0.000000 1.020330
          CHANNELS 3 Zrotation Yrotation Xrotation
          End Site
          {
            OFFSET 0 0 0
          }
        }
      }
    }
  }
  JOINT RightUpLeg
  {
    OFFSET -2.199780 -6.043852 0.000000
    CHANNELS 3 Zrotation Yrotation Xrotation
    JOINT RightLeg
    {
      OFFSET -2.293798 -6.302164 0.000000
      CHANNELS 3 Zrotation Yrotation Xrotation
      JOINT RightFoot
      {
        OFFSET -0.246243 -0.676548 1.948545
        CHANNELS 3 Zrotation Yrotation Xrotation
        JOINT RightToeBase
        {
          OFFSET -0.000000 -0.000000 1.032670
          CHANNELS 3 Zrotation Yrotation Xrotation
          End Site
          {
            OFFSET 0 0 0
          }
        }
      }
    }
  }
}
MOTION
Frames: 12
Frame Time: 0.00833333
10.226600 15.649400 7.921740 -166.809000 -76.997800 174.714000 -19.409100 -11.385000 -24.002600 0.000000 0.000000 42.199400 21.664000 0.000000 -20.430800 0.000000 0.000000 -32.021500 17.737200 -13.622400 -26.115200 0.000000 0.000000 62.739800 -8.858060 0.000000 8.306420 0.000000 0.000000 -24.003100 -9.763190 2.562550 -1.624010 3.035530 3.579760 -0.041863 8.737740 1.797600 0.072076 -0.051179 1.551780 -10.050200 1.824450 0.801232 -0.790709 0.000000 -0.000000 0.000000 90.791200 -13.086400 -42.286700 0.000000 0.000000 43.987500 47.025900 0.000000 -10.900900 0.000000 0.000000 7.125020 0.000000 -0.000000 0.000000 -74.112400 -3.706250 -41.975800 0.000000 0.000000 42.971600 24.566300 0.000000 -5.843750 0.000000 0.000000 7.125020
10.221500 15.655100 7.916950 -165.863000 -77.046800 173.856000 -19.162000 -11.319600 -24.075100 0.000000 0.000000 42.209700 21.539400 0.000000 -20.518200 0.000000 0.000000 -32.297900 17.949900 -13.647400 -26.064500 0.000000 0.000000 62.602000 -8.879890 0.000000 8.248910 0.000000 0.000000 -23.127500 -9.726610 2.602450 -1.778350 3.104340 3.645680 -0.063128 8.798180 1.829090 0.119475 0.008038 1.510250 -10.507800 1.700800 0.804203 -0.309335 -0.000000 -0.000000 0.000000 90.826500 -13.347500 -42.258000 0.000000 0.000000 43.918600 46.963300 0.000000 -10.230300 0.000000 0.000000 7.125020 -0.000000 -0.000000 0.000000 -74.103100 -3.406210 -41.777900 0.000000 0.000000 43.271500 20.611500 0.000000 -11.106000 0.000000 0.000000 7.125020
10.218200 15.658500 7.917140 -165.347000 -77.113600 173.363000 -19.050500 -11.343400 -24.068500 0.000000 0.000000 42.161700 21.602000 0.000000 -20.559400 0.000000 0.000000 -32.698400 18.013500 -13.806600 -26.043800 0.000000 0.000000 62.569000 -8.795800 0.000000 8.265680 0.000000 0.000000 -22.411000 -9.656200 2.654600 -1.865160 3.093190 3.722590 -0.050111 8.750020 1.864300 0.170058 0.160563 1.442760 -11.098400 1.513250 0.782105 0.252934 0.000000 0.000000 0.000000 90.618500 -13.122500 -42.102400 0.000000 0.000000 43.736600 46.937000 0.000000 -9.852770 0.000000 0.000000 7.125020 0.000000 0.000000 0.000000 -74.116000 -3.413050 -41.535900 0.000000 0.000000 43.481000 19.169000 0.000000 -12.801500 0.000000 0.000000 7.125020
10.216300 15.662100 7.913950 -165.476000 -77.145400 173.509000 -19.076500 -11.264800 -24.074300 0.000000 0.000000 42.152200 21.598800 0.000000 -20.552900 0.000000 0.000000 -32.937500 17.948300 -13.923000 -26.053800 0.000000 0.000000 62.537100 -8.740520 0.000000 8.332310 0.000000 0.000000 -22.011600 -9.757660 2.709000 -1.989630 3.054310 3.810830 -0.027803 8.773870 1.903780 0.240047 0.406720 1.358510 -11.633200 1.248950 0.739119 0.827665 -0.000000 0.000000 0.000000 90.385800 -12.787100 -41.935300 0.000000 0.000000 43.488900 46.819800 0.000000 -9.871290 0.000000 0.000000 7.125020 -0.000000 0.000000 0.000000 -74.181700 -3.488500 -41.331300 0.000000 0.000000 43.720800 20.827300 0.000000 -11.917500 0.000000 0.000000 7.125020
10.215900 15.660000 7.922640 -165.435000 -77.168800 173.422000 -19.110300 -11.511600 -24.042400 0.000000 0.000000 42.160700 21.790400 0.000000 -20.460600 0.000000 0.000000 -32.926800 17.861100 -14.081100 -26.021100 0.000000 0.000000 62.512700 -8.689410 0.000000 8.410460 0.000000 0.000000 -21.938500 -9.674830 2.756100 -1.986610 3.045620 3.871980 -0.016116 8.716320 1.933840 0.243075 0.370246 1.253200 -12.044100 1.099530 0.703184 1.385770 -0.000000 0.000000 0.000000 90.294200 -12.482200 -41.857100 0.000000 0.000000 43.278300 46.634400 0.000000 -10.146400 0.000000 0.000000 7.125020 -0.000000 0.000000 0.000000 -74.292400 -3.250840 -41.269400 0.000000 0.000000 44.151700 22.078200 0.000000 -11.314700 0.000000 0.000000 7.125020
10.216100 15.655700 7.940230 -164.887000 -77.167100 172.821000 -19.050100 -11.953200 -24.023200 0.000000 0.000000 42.186000 22.083100 0.000000 -20.399000 0.000000 0.000000 -32.848800 17.864400 -14.239800 -26.002900 0.000000 0.000000 62.487500 -8.593140 0.000000 8.559590 0.000000 0.000000 -21.783700 -9.334910 2.811880 -1.908920 3.048510 3.930830 -0.020971 8.517900 1.965700 0.203868 0.145901 1.126830 -12.439800 1.058590 0.665098 1.960050 0.000000 0.000000 0.000000 90.248000 -12.330600 -41.855600 0.000000 0.000000 43.195100 46.497000 0.000000 -10.180000 0.000000 0.000000 7.125020 0.000000 0.000000 0.000000 -74.411500 -3.000420 -41.286700 0.000000 0.000000 44.655800 22.135700 0.000000 -11.286900 0.000000 0.000000 7.125020
10.215600 15.657400 7.944090 -164.315000 -77.192600 172.245000 -18.936700 -11.890700 -24.037800 0.000000 0.000000 42.211600 21.943700 0.000000 -20.476400 0.000000 0.000000 -33.101600 17.960400 -14.307600 -26.005800 0.000000 0.000000 62.461100 -8.540500 0.000000 8.682930 0.000000 0.000000 -21.590000 -9.135070 2.846730 -1.927650 3.028340 3.974040 -0.035650 8.381250 1.987850 0.204761 0.120793 0.980608 -12.688900 0.941490 0.592805 2.479560 0.000000 0.000000 0.000000 90.174400 -12.513500 -41.904000 0.000000 0.000000 43.224800 46.644500 0.000000 -10.294100 0.000000 0.000000 7.125020 0.000000 0.000000 0.000000 -74.630700 -2.891770 -41.285200 0.000000 0.000000 45.107000 21.950200 0.000000 -11.420900 0.000000 0.000000 7.125020
10.214800 15.660200 7.939970 -164.044000 -77.293500 171.981000 -18.884300 -11.549400 -24.053700 0.000000 0.000000 42.215000 21.651800 0.000000 -20.613900 0.000000 0.000000 -33.628200 18.037900 -14.389100 -25.988900 0.000000 0.000000 62.444600 -8.500390 0.000000 8.770750 0.000000 0.000000 -21.864400 -9.118880 2.809840 -2.010340 3.019430 3.931220 -0.050846 8.367260 1.964670 0.246150 0.194809 0.880190 -12.887800 0.748411 0.539287 3.007670 -0.000000 -0.000000 0.000000 90.066600 -12.532200 -41.909200 0.000000 0.000000 43.143300 46.875900 0.000000 -10.495100 0.000000 0.000000 7.125020 -0.000000 -0.000000 0.000000 -74.910900 -2.578930 -41.240100 0.000000 0.000000 45.515400 21.779700 0.000000 -11.582000 0.000000 0.000000 7.125020
10.214500 15.661200 7.937390 -164.094000 -77.393500 172.034000 -18.910100 -11.348600 -24.053500 0.000000 0.000000 42.184400 21.515700 0.000000 -20.638400 0.000000 0.000000 -33.953800 18.053600 -14.478600 -25.970200 0.000000 0.000000 62.449300 -8.511060 0.000000 8.809020 0.000000 0.000000 -22.383000 -9.163260 2.758150 -2.101070 3.016840 3.871210 -0.051735 8.395960 1.931290 0.306188 0.218585 0.827269 -13.216400 0.570469 0.516548 3.606240 -0.000000 -0.000000 0.000000 89.910700 -12.257100 -41.882700 0.000000 0.000000 42.998800 46.850300 0.000000 -10.207600 0.000000 0.000000 7.125020 -0.000000 -0.000000 0.000000 -75.139300 -2.134380 -41.163500 0.000000 0.000000 45.925200 21.775100 0.000000 -11.671400 0.000000 0.000000 7.125020
10.214800 15.661900 7.933490 -164.305000 -77.393800 172.250000 -18.937800 -11.240900 -24.029600 0.000000 0.000000 42.137800 21.469000 0.000000 -20.556700 0.000000 0.000000 -33.807400 18.059400 -14.420400 -25.976200 0.000000 0.000000 62.469900 -8.655430 0.000000 8.767860 0.000000 0.000000 -22.666400 -9.195220 2.778690 -2.213610 2.947400 3.910870 -0.038381 8.346800 1.946720 0.377944 0.292817 0.728987 -13.379800 0.420826 0.455729 4.083780 -0.000000 -0.000000 0.000000 89.746000 -12.259900 -41.878000 0.000000 0.000000 42.921000 46.824400 0.000000 -9.850530 0.000000 0.000000 7.125020 -0.000000 -0.000000 0.000000 -75.377900 -1.879410 -41.120100 0.000000 0.000000 46.331900 21.924800 0.000000 -11.599600 0.000000 0.000000 7.125020
10.216200 15.661100 7.931270 -164.300000 -77.378500 172.240000 -18.906000 -11.090900 -23.992200 0.000000 0.000000 42.095300 21.269700 0.000000 -20.627200 0.000000 0.000000 -33.192200 18.107200 -14.251200 -25.983100 0.000000 0.000000 62.494100 -8.854120 0.000000 8.714000 0.000000 0.000000 -22.602700 -9.110490 2.836730 -2.303890 2.855610 3.995550 -0.031709 8.204980 1.986140 0.430330 0.358230 0.588247 -13.309800 0.265615 0.367444 4.076520 0.000000 -0.000000 0.000000 89.608000 -12.366200 -41.818700 0.000000 0.000000 42.756300 46.994700 0.000000 -9.623440 0.000000 0.000000 7.125020 0.000000 -0.000000 0.000000 -75.637800 -1.871650 -41.103000 0.000000 0.000000 46.672500 22.201800 0.000000 -11.438200 0.000000 0.000000 7.125020
10.216900 15.661500 7.931470 -164.043000 -77.461200 171.983000 -18.843200 -10.952700 -23.976100 0.000000 0.000000 42.067200 20.911700 0.000000 -20.825800 0.000000 0.000000 -32.627400 18.181200 -14.132800 -25.983900 0.000000 0.000000 62.518300 -9.030150 0.000000 8.672720 0.000000 0.000000 -22.517900 -8.981590 2.840430 -2.395560 2.822800 4.005900 -0.011170 8.102320 1.986240 0.512443 0.237935 0.469872 -13.285900 0.182559 0.299149 4.404300 0.000000 -0.000000 0.000000 89.478800 -12.191400 -41.677700 0.000000 0.000000 42.495300 46.998800 0.000000 -9.480020 0.000000 0.000000 7.125020 0.000000 -0.000000 0.000000 -75.862500 -1.933750 -40.998800 0.000000 0.000000 46.926900 22.432800 0.000000 -11.336800 0.000000 0.000000 7.125020
